<svg xmlns="http://www.w3.org/2000/svg" xmlns:xlink="http://www.w3.org/1999/xlink" width="183.767" height="23.11" viewBox="0 0 183.767 23.11">
  <defs>
    <style>
      .cls-1 {
        fill-rule: evenodd;
        fill: url(#linear-gradient);
      }

      .cls-2 {
        fill: #fff;
      }
    </style>
    <linearGradient id="linear-gradient" x1="0.562" y1="0.749" x2="0.438" y2="0.251" gradientUnits="objectBoundingBox">
      <stop offset="0" stop-color="#fca204"/>
      <stop offset="0.788" stop-color="#fcb318"/>
      <stop offset="1" stop-color="#fbc52c"/>
    </linearGradient>
  </defs>
  <g id="SCHOOLSCOMPASS_LOGO_IN_SVG_1_" data-name="SCHOOLSCOMPASS LOGO IN SVG (1)" transform="translate(-253 -2425.993)">
    <g id="_350362635120" transform="translate(253 2425.993)">
      <path id="Path_601" data-name="Path 601" class="cls-1" d="M1999.271,2439.6l-1.089,1.967c.45,1.019,2.06,1.943,3.906,2.2v2.157c.023.782-.355,3.176,1.373,3.176,1.847,0,1.279-2.892,1.231-5.475a6.053,6.053,0,0,0,.615-.19,6.362,6.362,0,0,0,4.143-5.665,6.462,6.462,0,0,0-10.938-5.072c-2.794,2.56-1.231,4.788-2.675,7.016a4.165,4.165,0,0,1-2.888,1.967,4.631,4.631,0,0,1-3.835-1.09c-3.078-2.749-.521-8.533,3.954-7.49,1.8.4,2.2,1.375,2.888,2.039.237-.569.876-1.683.971-2.086a5.653,5.653,0,0,0-3.764-2.086c.095-2.441.5-4.978-1.231-4.978-1.752-.023-1.373,2.371-1.373,3.176v1.967a6.188,6.188,0,0,0-4.9,5.854c-.355,8.035,10.8,9.268,12.714,2.109.4-1.517.047-2.678.852-3.982a4.455,4.455,0,0,1,6.629-1.067c3.267,2.56.829,8.652-3.788,7.609A4.024,4.024,0,0,1,1999.271,2439.6Z" transform="translate(-1944.629 -2425.993)"/>
      <path id="Path_602" data-name="Path 602" class="cls-2" d="M259.676,2468.83c-3.433,0-5.753,1.683-5.753,4.409,0,5.618,8.523,3.65,8.523,7.182,0,1.208-1.113,1.9-2.959,1.9a8.248,8.248,0,0,1-5.327-2.3l-1.16,2.3a9.724,9.724,0,0,0,6.44,2.513c3.48,0,5.966-1.731,5.966-4.551.024-5.688-8.5-3.84-8.5-7.3,0-1.043,1.018-1.635,2.557-1.635a9.449,9.449,0,0,1,4.64,1.469l1.089-2.347A10.23,10.23,0,0,0,259.676,2468.83Zm13.59,3.816a6.092,6.092,0,0,0,0,12.183,6.067,6.067,0,0,0,5.09-2.229l-1.444-1.446a4.427,4.427,0,0,1-3.528,1.446,3.849,3.849,0,0,1,0-7.679,4.576,4.576,0,0,1,3.433,1.351l1.421-1.659A6.37,6.37,0,0,0,273.266,2472.646Zm14.939,0a4.508,4.508,0,0,0-4.427,2.441V2468h-2.6v16.734h2.6v-5.9a3.42,3.42,0,0,1,3.433-3.745,2.654,2.654,0,0,1,2.865,2.916v6.731h2.6v-7.466C292.68,2474.4,291.022,2472.646,288.205,2472.646Zm33.927,12.088V2468h-2.6v16.734Zm7.529-12.112c-2.3,0-4.427,1.043-4.427,3.484-.024,4.338,6.3,2.939,6.3,5.4,0,.9-.876,1.28-1.965,1.28a6.569,6.569,0,0,1-4.025-1.469l-.923,1.849a7.554,7.554,0,0,0,4.83,1.659c2.415,0,4.593-1.091,4.593-3.556.024-4.361-6.345-3.176-6.345-5.381,0-.853.734-1.185,1.752-1.185a7.2,7.2,0,0,1,3.457,1.043l.947-1.92A7.7,7.7,0,0,0,329.66,2472.622Zm14.158-3.745a7.992,7.992,0,1,0-.095,15.975,9.04,9.04,0,0,0,6.108-2.583l-1.586-1.778a6.441,6.441,0,0,1-4.38,1.873,5.559,5.559,0,1,1,0-11.116,6.075,6.075,0,0,1,4.38,2.015l1.563-1.944A8.694,8.694,0,0,0,343.818,2468.877Zm13.353,3.769a6.094,6.094,0,1,0,6.25,6.091A5.864,5.864,0,0,0,357.171,2472.646Zm0,2.228a3.906,3.906,0,1,1-3.67,3.888A3.617,3.617,0,0,1,357.171,2474.874Zm24.6-2.228a4.39,4.39,0,0,0-4.546,2.892,4.032,4.032,0,0,0-4.167-2.892,4.409,4.409,0,0,0-4.356,2.417v-2.323H366.12v11.993H368.7v-5.926a3.427,3.427,0,0,1,3.338-3.745,2.659,2.659,0,0,1,2.817,2.939v6.731h2.581v-5.926a3.419,3.419,0,0,1,3.291-3.745,2.665,2.665,0,0,1,2.841,2.939v6.731h2.6v-7.466C386.173,2474.4,384.516,2472.646,381.77,2472.646Zm14.773,0a4.672,4.672,0,0,0-4.19,2.157v-2.062h-2.6v16.378h2.6v-6.447a4.7,4.7,0,0,0,4.238,2.157c3.433,0,5.682-2.465,5.682-6.044C402.272,2475.135,399.952,2472.646,396.543,2472.646Zm-.545,9.979a3.921,3.921,0,1,1,3.646-3.935A3.639,3.639,0,0,1,396,2482.625Zm16.17,2.109h2.557l-.024-7.869c-.024-2.631-1.776-4.219-4.853-4.219a8.694,8.694,0,0,0-5.161,1.517l1.042,1.8a6.391,6.391,0,0,1,3.551-1.209c1.894,0,2.865.9,2.865,2.394v.38H408.5c-2.865.023-4.522,1.422-4.522,3.6,0,2.133,1.634,3.721,4.214,3.721a4.873,4.873,0,0,0,3.977-1.587Zm-3.433-1.944c-1.444,0-2.32-.687-2.32-1.777,0-1.138.781-1.588,2.486-1.588h3.244v1.091C412,2481.842,410.582,2482.79,408.736,2482.79Zm13.021-10.168c-2.3,0-4.4,1.043-4.4,3.484-.024,4.338,6.274,2.939,6.274,5.4,0,.9-.852,1.28-1.941,1.28a6.517,6.517,0,0,1-4.025-1.469l-.923,1.849a7.554,7.554,0,0,0,4.83,1.659c2.415,0,4.593-1.091,4.593-3.556.024-4.361-6.345-3.176-6.345-5.381,0-.853.734-1.185,1.752-1.185a7.2,7.2,0,0,1,3.457,1.043l.947-1.92A7.719,7.719,0,0,0,421.757,2472.622Zm10.607,0c-2.3,0-4.427,1.043-4.427,3.484-.024,4.338,6.3,2.939,6.3,5.4,0,.9-.852,1.28-1.965,1.28a6.452,6.452,0,0,1-4-1.469l-.923,1.849a7.441,7.441,0,0,0,4.806,1.659c2.415,0,4.617-1.091,4.617-3.556.024-4.361-6.369-3.176-6.369-5.381,0-.853.758-1.185,1.752-1.185a7.2,7.2,0,0,1,3.457,1.043l.947-1.92A7.639,7.639,0,0,0,432.363,2472.622Z" transform="translate(-253 -2467.004)"/>
    </g>
  </g>
</svg>
