<svg xmlns="http://www.w3.org/2000/svg" width="134.567" height="40" viewBox="0 0 134.567 40">
  <g id="bbc-2" transform="translate(-2.834 -68.572)">
    <path id="Path_569" data-name="Path 569" d="M155.548,108.572v-40h-41.71v40Zm-9.505-28.513a19.136,19.136,0,0,0-9.436-2.8,10.77,10.77,0,0,0-7.931,3.077,9.817,9.817,0,0,0-3.213,7.521,10.332,10.332,0,0,0,3.145,7.522,11.554,11.554,0,0,0,7.931,2.871,18.1,18.1,0,0,0,9.846-3.078v4.308a20.652,20.652,0,0,1-10.052,2.461,15.833,15.833,0,0,1-7.933-1.846,15.35,15.35,0,0,1-5.128-5.129,14.987,14.987,0,0,1-1.915-7.111,13.252,13.252,0,0,1,4.376-10.188,14.881,14.881,0,0,1,10.6-4.171,23.612,23.612,0,0,1,9.709,2.325v4.24h0ZM109.189,68.572H67.479v40h41.71ZM80.265,74.52h7.248a12.845,12.845,0,0,1,5.4.889,7.007,7.007,0,0,1,2.873,2.53,6.9,6.9,0,0,1,1.026,3.76c0,2.735-1.368,4.649-4.24,5.812a7.8,7.8,0,0,1,4.855,2.53,6.836,6.836,0,0,1,1.777,4.581,7.784,7.784,0,0,1-1.093,3.761A8.555,8.555,0,0,1,94.9,101.12a12.04,12.04,0,0,1-5.265,1.026H80.265V74.52Z" transform="translate(-18.148 0)" fill="#707070" fill-rule="evenodd"/>
    <path id="Path_570" data-name="Path 570" d="M68.682,86.35a7.013,7.013,0,0,0,4.513-1.162,4.338,4.338,0,0,0,1.367-3.214c0-2.6-1.708-3.966-5.059-3.966H66.084V86.35h2.6Zm1.094,3.555H66.084v8.683H70.05a17.157,17.157,0,0,0,4.307-.41,5.152,5.152,0,0,0,1.915-1.641,4.37,4.37,0,0,0,.684-2.256,4.441,4.441,0,0,0-.753-2.256,3.587,3.587,0,0,0-2.051-1.642A12,12,0,0,0,69.776,89.906ZM44.544,68.572H2.834v40h41.71ZM15.553,102.145V74.52H22.8a12.509,12.509,0,0,1,5.333.889,6.468,6.468,0,0,1,2.94,2.6A7.12,7.12,0,0,1,32.169,81.7c-.068,2.735-1.436,4.649-4.308,5.88a7.9,7.9,0,0,1,4.855,2.461,6.521,6.521,0,0,1,1.778,4.581A6.26,6.26,0,0,1,33.4,98.383a7.72,7.72,0,0,1-3.145,2.735,12.36,12.36,0,0,1-5.333,1.026H15.553Z" transform="translate(0 0)" fill="#707070" fill-rule="evenodd"/>
    <path id="Path_571" data-name="Path 571" d="M29.45,81.691H26.031v8.342H28.7a6.927,6.927,0,0,0,4.445-1.162,4.192,4.192,0,0,0,1.367-3.145C34.509,83.058,32.8,81.691,29.45,81.691Zm.273,11.9H26.031v8.683h3.9a16.934,16.934,0,0,0,4.444-.41,4.392,4.392,0,0,0,1.846-1.5,5.7,5.7,0,0,0,.684-2.392,4.2,4.2,0,0,0-.752-2.256A3.654,3.654,0,0,0,34.1,94.134,12.164,12.164,0,0,0,29.723,93.588Z" transform="translate(-6.512 -3.683)" fill="#707070" fill-rule="evenodd"/>
  </g>
</svg>
