<svg id="cnn-logo" xmlns="http://www.w3.org/2000/svg" width="86.627" height="40" viewBox="0 0 86.627 40">
  <path id="Path_566" data-name="Path 566" d="M27.435.035c0-.018-7.455,0-7.455,0a19.98,19.98,0,0,0,0,39.96L34,39.983a6.357,6.357,0,0,0,6.376-6.354l.007-12.186,9.688,15.28A7.323,7.323,0,0,0,63.5,32.692l0-11.249,9.688,15.28a7.323,7.323,0,0,0,13.437-4.032l0-32.675H81.64V32.692A2.336,2.336,0,0,1,77.368,34L60.124,6.837a.884.884,0,0,0-1.612.5l.006,25.354A2.336,2.336,0,0,1,54.245,34L37,6.837a.884.884,0,0,0-1.612.5l0,26.292A1.389,1.389,0,0,1,34,35.018l-14.016-.01a14.993,14.993,0,0,1,0-29.986l7.455-.005Z" transform="translate(0 -0.015)" fill="#707070"/>
  <path id="Path_567" data-name="Path 567" d="M72.153,28.589a.71.71,0,0,0,.71-.71l0-20.556a7.323,7.323,0,0,1,13.451-4.01L95.97,18.457l.017-11.134a7.323,7.323,0,0,1,13.451-4.01l9.654,15.145V0h5.019L124.1,32.677a.884.884,0,0,1-1.591.53L105.247,6.017a2.336,2.336,0,0,0-4.273,1.306l.006,25.354a.884.884,0,0,1-1.591.53L82.125,6.017a2.336,2.336,0,0,0-4.273,1.306l.01,25.555a.71.71,0,0,1-.71.71l-13.258,0a13.586,13.586,0,0,1,0-27.171s7.455-.029,7.455,0v5.037l-7.455-.006a8.576,8.576,0,0,0,0,17.152Z" transform="translate(-43.915)" fill="#707070"/>
</svg>
