<svg xmlns="http://www.w3.org/2000/svg" xmlns:xlink="http://www.w3.org/1999/xlink" width="185.755" height="23.35" viewBox="0 0 185.755 23.35">
  <defs>
    <style>
      .cls-1 {
        fill-rule: evenodd;
        fill: url(#linear-gradient);
      }

      .cls-2 {
        fill: #005d5d;
      }
    </style>
    <linearGradient id="linear-gradient" x1="0.562" y1="0.749" x2="0.438" y2="0.251" gradientUnits="objectBoundingBox">
      <stop offset="0" stop-color="#fca204"/>
      <stop offset="0.788" stop-color="#fcb318"/>
      <stop offset="1" stop-color="#fbc52c"/>
    </linearGradient>
  </defs>
  <g id="SCHOOLSCOMPASS_LOGO_IN_SVG_1_" data-name="SCHOOLSCOMPASS LOGO IN SVG (1)" transform="translate(18 -800.993)">
    <g id="_350362635120" transform="translate(-18 800.993)">
      <path id="Path_601" data-name="Path 601" class="cls-1" d="M1999.418,2439.74l-1.1,1.988c.455,1.03,2.082,1.963,3.949,2.227v2.179c.024.791-.359,3.209,1.388,3.209,1.867,0,1.292-2.922,1.244-5.532a6.3,6.3,0,0,0,.622-.192,6.429,6.429,0,0,0,4.188-5.724,6.532,6.532,0,0,0-11.056-5.125c-2.824,2.586-1.244,4.837-2.7,7.088a4.209,4.209,0,0,1-2.92,1.988,4.68,4.68,0,0,1-3.877-1.1c-3.111-2.778-.527-8.622,4-7.568,1.819.407,2.226,1.389,2.92,2.06.239-.575.885-1.7.981-2.107a5.715,5.715,0,0,0-3.805-2.107c.1-2.467.5-5.029-1.244-5.029-1.771-.024-1.388,2.4-1.388,3.209v1.988a6.254,6.254,0,0,0-4.954,5.916c-.359,8.119,10.913,9.364,12.851,2.131.407-1.533.048-2.706.862-4.023a4.5,4.5,0,0,1,6.7-1.078c3.3,2.587.838,8.742-3.829,7.688A4.069,4.069,0,0,1,1999.418,2439.74Z" transform="translate(-1944.185 -2425.993)"/>
      <path id="Path_602" data-name="Path 602" class="cls-2" d="M259.749,2468.838c-3.47,0-5.815,1.7-5.815,4.455,0,5.676,8.615,3.688,8.615,7.257,0,1.221-1.125,1.916-2.991,1.916a8.336,8.336,0,0,1-5.385-2.323L253,2482.465a9.829,9.829,0,0,0,6.509,2.539c3.518,0,6.031-1.749,6.031-4.6.024-5.748-8.591-3.88-8.591-7.376,0-1.054,1.029-1.652,2.585-1.652a9.554,9.554,0,0,1,4.691,1.484l1.1-2.371A10.342,10.342,0,0,0,259.749,2468.838Zm13.737,3.856a6.155,6.155,0,0,0,0,12.31,6.134,6.134,0,0,0,5.145-2.251l-1.46-1.461a4.476,4.476,0,0,1-3.566,1.461,3.889,3.889,0,0,1,0-7.759,4.625,4.625,0,0,1,3.47,1.365l1.436-1.676A6.44,6.44,0,0,0,273.485,2472.694Zm15.1,0a4.557,4.557,0,0,0-4.475,2.466V2468h-2.632v16.908h2.632v-5.963a3.456,3.456,0,0,1,3.47-3.784,2.682,2.682,0,0,1,2.9,2.946v6.8h2.633v-7.544C293.109,2474.466,291.434,2472.694,288.586,2472.694Zm34.294,12.214V2468h-2.632v16.908Zm7.61-12.238c-2.321,0-4.475,1.054-4.475,3.52-.024,4.383,6.366,2.97,6.366,5.461,0,.91-.885,1.293-1.986,1.293a6.641,6.641,0,0,1-4.068-1.485l-.933,1.868a7.634,7.634,0,0,0,4.882,1.677c2.441,0,4.643-1.1,4.643-3.593.024-4.406-6.414-3.209-6.414-5.437,0-.862.742-1.2,1.771-1.2a7.278,7.278,0,0,1,3.494,1.054l.957-1.94A7.784,7.784,0,0,0,330.49,2472.67Zm14.311-3.784a8.075,8.075,0,1,0-.1,16.141,9.141,9.141,0,0,0,6.174-2.61l-1.6-1.8a6.514,6.514,0,0,1-4.427,1.892,5.617,5.617,0,1,1,0-11.232,6.142,6.142,0,0,1,4.427,2.036l1.58-1.964A8.789,8.789,0,0,0,344.8,2468.887Zm13.5,3.808a6.157,6.157,0,1,0,6.318,6.155A5.926,5.926,0,0,0,358.3,2472.694Zm0,2.251a3.947,3.947,0,1,1-3.709,3.928A3.656,3.656,0,0,1,358.3,2474.945Zm24.865-2.251a4.437,4.437,0,0,0-4.595,2.922,4.075,4.075,0,0,0-4.212-2.922,4.456,4.456,0,0,0-4.4,2.443v-2.347h-2.609v12.118h2.609v-5.987a3.462,3.462,0,0,1,3.374-3.784,2.687,2.687,0,0,1,2.848,2.97v6.8h2.609v-5.987a3.455,3.455,0,0,1,3.326-3.784,2.694,2.694,0,0,1,2.872,2.97v6.8h2.632v-7.544C387.614,2474.466,385.939,2472.694,383.163,2472.694Zm14.933,0a4.724,4.724,0,0,0-4.236,2.179v-2.083h-2.633v16.549h2.633v-6.514a4.751,4.751,0,0,0,4.284,2.18c3.47,0,5.743-2.491,5.743-6.107C403.887,2475.209,401.542,2472.694,398.1,2472.694Zm-.55,10.083a3.961,3.961,0,1,1,3.685-3.976A3.678,3.678,0,0,1,397.545,2482.777Zm16.345,2.131h2.585l-.024-7.951c-.024-2.658-1.795-4.263-4.906-4.263a8.788,8.788,0,0,0-5.217,1.533l1.053,1.82a6.462,6.462,0,0,1,3.59-1.221c1.915,0,2.9.91,2.9,2.418v.383h-3.685c-2.9.023-4.571,1.437-4.571,3.64,0,2.155,1.651,3.76,4.26,3.76a4.925,4.925,0,0,0,4.021-1.6Zm-3.47-1.964c-1.46,0-2.345-.694-2.345-1.8,0-1.149.79-1.6,2.513-1.6h3.279v1.1C413.723,2481.987,412.287,2482.944,410.42,2482.944Zm13.162-10.274c-2.321,0-4.451,1.054-4.451,3.52-.024,4.383,6.342,2.97,6.342,5.461,0,.91-.862,1.293-1.962,1.293a6.589,6.589,0,0,1-4.068-1.485l-.933,1.868a7.634,7.634,0,0,0,4.882,1.677c2.441,0,4.643-1.1,4.643-3.593.024-4.406-6.414-3.209-6.414-5.437,0-.862.742-1.2,1.771-1.2a7.278,7.278,0,0,1,3.494,1.054l.957-1.94A7.806,7.806,0,0,0,423.583,2472.67Zm10.721,0c-2.321,0-4.475,1.054-4.475,3.52-.024,4.383,6.366,2.97,6.366,5.461,0,.91-.862,1.293-1.986,1.293a6.523,6.523,0,0,1-4.044-1.485l-.933,1.868a7.521,7.521,0,0,0,4.858,1.677c2.441,0,4.667-1.1,4.667-3.593.024-4.406-6.438-3.209-6.438-5.437,0-.862.766-1.2,1.771-1.2a7.278,7.278,0,0,1,3.494,1.054l.957-1.94A7.724,7.724,0,0,0,434.3,2472.67Z" transform="translate(-253 -2466.994)"/>
    </g>
  </g>
</svg>
