<svg id="the-guardian" xmlns="http://www.w3.org/2000/svg" width="227.213" height="40" viewBox="0 0 227.213 40">
  <path id="Path_564" data-name="Path 564" d="M14.728,9.539h-4.68l.026-5L3.147,5.573V9.433L0,9.909v3.067H3.252L3.226,26.435A5.08,5.08,0,0,0,8.752,31.01c5.361-.314,5.817-.925,6.293-1.243-.038.039,0-2.618,0-2.618l-2.909.079a2.142,2.142,0,0,1-1.9-1.93c-.01,0-.053-12.269-.053-12.269l4.548.026V9.539ZM24.8,0,15.442,1.342l.013,1.785,2.485,1.111L17.967,27.6l-2.353.925.027,1.917,11.476.013v-1.9l-2.314-1,.013-13.816a8.415,8.415,0,0,1,3.12-.582c1.811,0,2.644,1.163,2.644,1.877v12.56l-2.115.939v1.93H39.914V28.6l-2.353-1.15V13.294s.053-4.5-5.156-4.27a11.589,11.589,0,0,0-7.622,2.763C24.782,11.78,24.782.013,24.8,0ZM59.684,20.551c.266-4.609-.216-11.958-9.517-11.517-9.114.432-10.265,7.4-10.209,11.91.524,7.281,4.278,9.988,11.331,10.1,5.572-.187,7.591-3.122,7.591-3.122V25.945a20.751,20.751,0,0,1-5.366.766,6.081,6.081,0,0,1-6.432-6.161ZM47.064,18.1a19.451,19.451,0,0,1,.554-4.858,2.49,2.49,0,0,1,2.531-2c1.836,0,2.3,1.027,2.5,2.292a25.261,25.261,0,0,1,.228,4.308Z" fill="#707070"/>
  <path id="Path_565" data-name="Path 565" d="M474.708,26.062h-8.3a1.462,1.462,0,0,1-1.3-1.4,1.5,1.5,0,0,1,.846-1.586,14.423,14.423,0,0,0,3.623.529c1.851,0,9.122-.767,9.122-7.06a5.944,5.944,0,0,0-2.247-4.5l4.021,1.077-.068-4.131-5.8,1.071a19.032,19.032,0,0,0-5.156-1.1c-1.441,0-8.871.571-9.142,7.095a6.72,6.72,0,0,0,3.669,6.324c-.027,0-3.7,2.274-3.728,5.1-.026,2.724,3.085,3.56,3.316,3.619.01,0,.015,0,.015,0l-.015,0c-.3-.009-5.062.886-5.062,4.235,0,3.2,5.288,4.759,10.894,4.786s11.766-1.56,11.766-8.2S474.708,26.062,474.708,26.062Zm-5.315-14.582c2.578-.013,2.591,2.657,2.6,3.781v2s.344,3.6-2.38,3.609-2.644-2.089-2.644-3.609V14.9S466.815,11.492,469.393,11.479Zm.013,26.111c-3.834,0-5.209-1.56-5.209-3.067a2.547,2.547,0,0,1,.939-2.129l8.316-.013s1.653.185,1.653,1.639C475.1,36.256,473.24,37.59,469.406,37.59ZM490.493,9.113l-9.36,1.454v1.825l2.406,1.163V25.321s.125,5.778,5.791,5.844a8.646,8.646,0,0,0,6.9-3.147v3.094l9.07-1.084V28.362l-2.318-1.338V9.166l-9.317,1.454v1.745l2.459,1.243v12.56a5.14,5.14,0,0,1-2.67.687,3.2,3.2,0,0,1-2.961-1.771Zm16.721,1.509a28.73,28.73,0,0,1,8.152-1.627c3.683,0,9.012,1.253,9.012,5.833v12.7l2.281,1.2v1.515a9.175,9.175,0,0,1-4.02.879c-2.393,0-4.469-1.215-4.469-3.048-.52.009-.709,3.01-6.32,3.01-6.544,0-6.039-5.8-6.039-5.908a5.176,5.176,0,0,1,4.581-5.235c4.711-.9,6.9-1.253,6.9-1.253l-.023-4.263s-.388-2.58-2.613-2.562-2.206.037-2.206.037l-1.57,4.282H507.2l.019-5.553ZM517.47,26.6V20.839s-4.693-.421-4.7,3.337c-.007,2.829,1.771,3.16,2.58,3.16A4.354,4.354,0,0,0,517.47,26.6ZM536.232,8.92l-9.143,1.44v1.907l2.356,1.122V27.542l-2.188,1.122v1.795H539.3v-1.72l-2.879-1.159.019-11.686a11.441,11.441,0,0,1,3.683-.729,14.1,14.1,0,0,1,2.767.206V9.256S538.971,8.029,536.2,13.5c0,.019.037-4.58.037-4.58ZM554.35,1.946V3.8l2.3,1.1V9.911a9.185,9.185,0,0,0-3.552-.767c-1.944,0-9.891.3-10.115,11.218s8.264,10.769,8.189,10.769,3.889.112,5.684-2.206c-.009,0-.019,2.2-.019,2.2l8.984-1.094V28.253l-2.16-1.1L563.642.488,554.35,1.946Zm2.29,10.826V26.963a5.081,5.081,0,0,1-2.122.374c-2.246,0-4.146-1.528-4.132-6.451.012-4.3.64-7.679,2.52-8.563A3.749,3.749,0,0,1,556.64,12.772Zm19.419-8.8A3.821,3.821,0,1,1,572.238.149,3.822,3.822,0,0,1,576.059,3.97ZM575.9,9.007l-9.493,1.349V12.18l2.486,1.216V27.569L566.619,28.6v1.93h11.423V28.68l-2.168-1.058L575.9,9.007Zm4.333,1.591a28.734,28.734,0,0,1,8.152-1.627c3.683,0,9.012,1.253,9.012,5.833V27.5l2.281,1.2v1.514a9.175,9.175,0,0,1-4.02.879c-2.393,0-4.469-1.215-4.469-3.048-.52.009-.71,3.01-6.32,3.01-6.544,0-6.039-5.8-6.039-5.908a5.175,5.175,0,0,1,4.581-5.235c4.711-.9,6.9-1.253,6.9-1.253l-.023-4.263s-.388-2.58-2.613-2.561-2.206.037-2.206.037l-1.57,4.282h-3.683Zm10.256,15.977V20.816s-4.693-.421-4.7,3.337c-.007,2.829,1.771,3.16,2.58,3.16A4.355,4.355,0,0,0,590.489,26.574Zm18.859-17.62-9.334,1.481v1.772l2.512,1.19V27.675l-2.3.925v1.983h11.423V28.627l-2.115-1v-13.8a7.236,7.236,0,0,1,2.8-.529c1.666,0,2.962.74,2.962,2.38V27.622l-2.344,1.152-.01,1.757h11.635V28.653L622.3,27.7V14.454s.158-5.288-5.209-5.288-7.721,2.829-7.721,2.829Z" transform="translate(-397.366 -0.129)" fill="#707070"/>
</svg>
